<svg width="488" height="458" viewBox="0 0 488 458" fill="none" xmlns="http://www.w3.org/2000/svg">
<path d="M241.768 26.1155C268.705 25.2562 295.567 29.4012 320.992 38.3402C372.975 57.0035 415.412 95.5552 438.967 145.512C446.007 160.311 451.853 177.03 454.323 193.261C458.03 217.624 458.2 243.178 453.763 267.417C447.438 301.965 427.66 339.657 387.63 339.938C372.845 340.115 358.89 336.587 348.688 324.99C342.115 317.515 338.54 308.075 334.353 299.14L318.725 265.042C312.25 265.082 305.772 265.052 299.297 264.947C298.83 273.937 299.255 285.685 299.245 294.895L299.267 324.975C299.27 328.815 299.1 332.907 299.18 336.68C288.075 337 272.385 337.057 261.517 336.497C261.122 326.132 261.41 314.82 261.445 304.38L261.475 252.137L261.453 185.314C261.41 168.858 261.13 151.823 261.545 135.424C277.075 135.28 292.61 135.247 308.142 135.326C324.752 135.328 335.718 134.033 351.47 140.588C387.023 155.382 394.025 200.905 380.142 233.061C376.31 241.933 364.127 254.927 355.025 258.352C359.29 267.555 369.91 291.707 376.307 297.935C379.42 300.962 382.79 302.43 387.135 302.335C392.498 302.217 397.18 299.298 400.82 295.503C414.928 280.795 418.602 245.616 418.21 226.169C417.312 181.736 398.395 142.121 366.487 111.588C338.98 85.2662 301.335 69.2452 263.483 66.1485C255.923 65.5297 248.266 65.6665 240.688 65.8252C214.314 66.3392 186.459 74.4015 163.539 87.4712C124.375 109.533 95.559 146.226 83.412 189.505C72.2095 232.395 78.21 277.965 100.134 316.492C121.366 352.812 155.95 379.4 196.509 390.58C239.517 402.18 287.79 396.49 327.492 376.505C334.205 373.148 340.738 369.443 347.068 365.408C351.168 362.763 355.737 359.337 359.872 356.957C365.48 363.307 370.572 370.647 376.247 377.025C377.755 378.717 383.37 385.028 383.615 386.665C381.8 389.97 368.325 398.91 364.987 401.085C330.34 423.182 290.322 435.408 249.241 436.44C206.168 437.47 163.78 425.535 127.571 402.185C120.158 397.305 107.855 387.048 101.457 381.033C62.8578 344.373 40.3793 293.897 38.9553 240.682C37.134 182.616 57.419 132.089 97.062 90.0417C134.894 50.3612 186.957 27.3615 241.768 26.1155ZM298.99 230.87L314.358 230.765C324.22 230.719 332.53 231.218 340.14 223.583C347.173 215.623 348.018 206.949 347.533 196.7C347.208 189.779 344.82 182.01 339.305 177.368C329.892 169.447 318.328 171.027 306.978 170.944C304.76 170.927 301.107 171.086 299.092 170.674C298.845 182.143 298.997 194.124 299.03 205.617L298.99 230.87Z" fill="black"/>
<path d="M191.072 133.612C207.066 133.259 228.066 136.942 240.946 147.021C241.389 151.789 241.204 157.456 241.207 162.325L241.064 190.521C217.443 170.066 173.029 165.6 157.207 197.847C154 204.384 152.571 210.284 151.009 217.337L209.971 217.322C217.156 217.306 226.629 217.627 233.509 217.312C233.708 224.674 233.801 232.039 233.787 239.404C233.758 243.151 233.475 248.303 233.69 251.915C227.672 251.665 219.951 251.915 213.753 251.918L171.555 251.87C166.082 251.84 154.979 252.308 150.326 251.495C150.609 260.235 154.504 272.673 159.347 279.855C166.985 291.183 175.615 296.288 188.748 298.948C206.837 302.003 226.359 295 240.981 284.58C241.545 297.485 241.108 311.193 241.086 324.165C241.082 327.063 236.124 329.058 233.736 330.265C203.474 345.558 161.526 341.84 136.366 318.27C117.193 300.228 108.415 274.395 107.09 248.639C103.252 193.002 128.793 136.671 191.072 133.612Z" fill="black"/>
</svg>
